<?xml version="1.0" encoding="UTF-8"?>
<svg width="1200pt" height="1200pt" version="1.1" viewBox="0 0 1200 1200" xmlns="http://www.w3.org/2000/svg">
 <g>
  <path d="m241.04 600c0-8.4648 6.8789-15.266 15.266-15.266h687.39c8.4648 0 15.266 6.8789 15.266 15.266 0 8.4648-6.8789 15.266-15.266 15.266h-687.4c-8.3867 0-15.262-6.8008-15.262-15.266z"/>
  <path d="m709.12 380.7c0-3.9297 1.5117-7.7852 4.457-10.809 5.9688-5.9688 15.645-5.9688 21.613 0l218.48 218.55c6.5 5.5938 6.5742 17.004 0.30078 22.824l-218.78 218.86c-5.9688 5.9688-15.645 5.9688-21.613 0s-5.9688-15.645 0-21.613l208.5-208.5-208.5-208.5c-2.9453-2.9453-4.457-6.875-4.457-10.805z"/>
 </g>
</svg>
