<?xml version="1.0" encoding="UTF-8"?>
<svg width="1200pt" height="1200pt" version="1.1" viewBox="0 0 1200 1200" xmlns="http://www.w3.org/2000/svg">
 <g>
  <path d="m1044.4 451.88c-63.75-3.75-131.25-76.875-140.62-88.125-11.25-22.5-26.25-45-46.875-61.875-43.125-39.375-101.25-56.25-159.38-50.625-95.625 11.25-170.62 88.125-178.12 183.75-1.875 30 1.875 61.875 11.25 90-78.75 3.75-151.88 20.625-215.62 48.75l-153.75-33.75c-7.5-1.875-13.125 0-18.75 5.625s-5.625 13.125-3.75 18.75l76.875 196.88c22.5 54.375 60 101.25 108.75 135s106.88 50.625 165 50.625h230.62c54.375 0 105-20.625 144.38-60 7.5-7.5 16.875-18.75 24.375-35.625 33.75-67.5 33.75-148.12-1.875-215.62-7.5-15-15-26.25-22.5-35.625 15-15 28.125-31.875 37.5-50.625l148.12-61.875c7.5-3.75 13.125-11.25 11.25-20.625s-7.5-13.125-16.875-15zm-217.5 163.12c5.625 5.625 16.875 16.875 28.125 39.375 30 58.125 30 125.62 1.875 181.88-5.625 11.25-11.25 20.625-16.875 24.375-31.875 31.875-73.125 48.75-118.12 48.75h-230.62c-52.5 0-101.25-15-144.38-45s-75-69.375-95.625-118.12l-63.75-161.25 125.62 28.125c3.75 0 7.5 0 11.25-1.875 67.5-31.875 146.25-48.75 234.38-48.75 7.5 0 13.125-3.75 16.875-9.375s3.75-13.125 0-18.75c-15-28.125-22.5-61.875-18.75-95.625 7.5-76.875 69.375-140.62 146.25-150 48.75-5.625 95.625 9.375 131.25 41.25s56.25 76.875 56.25 123.75c0 50.625-22.5 97.5-61.875 129.38-3.75 3.75-7.5 9.375-7.5 15s0 13.125 5.625 16.875zm93.75-112.5c3.75-15 5.625-30 5.625-46.875 0-7.5 0-13.125-1.875-20.625 16.875 15 39.375 28.125 61.875 39.375z"/>
  <path d="m785.62 378.75c-15 0-28.125 13.125-28.125 28.125s13.125 28.125 28.125 28.125 28.125-13.125 28.125-28.125-13.125-28.125-28.125-28.125z"/>
  <path d="m585 605.62c-20.625-9.375-43.125-11.25-61.875-1.875l-174.38 78.75c-16.875 7.5-26.25 24.375-24.375 43.125s16.875 33.75 35.625 35.625l196.88 30h11.25c20.625 0 39.375-9.375 54.375-24.375 20.625-24.375 28.125-60 18.75-95.625-9.375-28.125-30-52.5-56.25-65.625zm7.5 138.75c-5.625 7.5-16.875 13.125-31.875 11.25l-196.88-30s-3.75 0-3.75-3.75 1.875-3.75 1.875-3.75l174.38-78.75c5.625-1.875 9.375-3.75 13.125-3.75 7.5 0 13.125 1.875 16.875 3.75 16.875 7.5 28.125 24.375 33.75 45 9.375 22.5 5.625 45-7.5 60z"/>
 </g>
</svg>
