<?xml version="1.0" encoding="UTF-8"?>
<svg width="1200pt" height="1200pt" version="1.1" viewBox="0 0 1200 1200" xmlns="http://www.w3.org/2000/svg">
 <path d="m821.99 819.16c56.941 0 102.97-46.023 102.97-102.97v-81.238c0-56.941-46.027-102.96-102.97-102.96h-61.871c7.1211-48.91 14.461-92.07 28.574-141.46 0.67188-2.2969 0.21875-4.7734-1.2266-6.6836-1.4414-1.9062-3.7031-3.0195-6.0938-3-17.539 0-34.086 12.109-50.066 29.52-15.984 17.414-31.559 40.977-45.344 66.836-27.566 51.719-48.176 112.15-48.176 153.03v85.961c0 56.945 46.023 102.97 102.96 102.97zm-362.74 0c56.941 0 102.96-46.023 102.96-102.97v-81.238c0-56.941-46.023-102.96-102.96-102.96h-61.875c7.125-48.91 14.465-92.07 28.578-141.46 0.67188-2.2969 0.21875-4.7734-1.2266-6.6836-1.4414-1.9062-3.7031-3.0195-6.0977-3-17.535 0-34.082 12.109-50.062 29.52-15.984 17.414-31.562 40.977-45.344 66.836-27.566 51.719-48.176 112.15-48.176 153.03v85.961c0 56.945 46.023 102.97 102.96 102.97zm362.74-15.113h-81.238c-48.84 0-87.852-39.012-87.852-87.855v-85.961c0-35.535 19.824-95.855 46.523-145.95 13.352-25.047 28.301-47.539 42.98-63.527 10.367-11.297 19.996-17.527 28.578-21.02-12.766 47.621-20.484 90.469-27.395 138.86-0.27344 2.1602 0.39844 4.3359 1.8477 5.9648 1.4492 1.6289 3.5273 2.5508 5.707 2.5352h70.848c48.844 0 87.852 39.012 87.852 87.852v81.238c0 48.844-39.008 87.855-87.852 87.855zm-362.74 0h-81.238c-48.844 0-87.852-39.012-87.852-87.855v-85.961c0-35.535 19.824-95.855 46.523-145.95 13.348-25.047 28.301-47.539 42.98-63.527 10.367-11.297 19.996-17.527 28.574-21.02-12.762 47.621-20.48 90.469-27.395 138.86-0.26953 2.1602 0.40234 4.3359 1.8516 5.9648 1.4492 1.6289 3.5273 2.5508 5.707 2.5352h70.848c48.844 0 87.852 39.012 87.852 87.852v81.238c0 48.844-39.008 87.855-87.852 87.855z"/>
</svg>
