<svg viewBox="0 0 56 56" fill="none" xmlns="http://www.w3.org/2000/svg">
<path d="M39.3975 8.11125C39.3975 7.80393 39.2754 7.5092 39.0581 7.29189C38.8408 7.07458 38.5461 6.9525 38.2387 6.9525H32.445C29.5276 6.80717 26.6712 7.82247 24.5 9.77656C22.3288 11.7306 21.0192 14.4647 20.8575 17.3812V23.6385H15.0637C14.7564 23.6385 14.4617 23.7606 14.2444 23.9779C14.0271 24.1952 13.905 24.4899 13.905 24.7972V30.8227C13.905 31.1301 14.0271 31.4248 14.2444 31.6421C14.4617 31.8594 14.7564 31.9815 15.0637 31.9815H20.8575V47.5087C20.8575 47.8161 20.9796 48.1108 21.1969 48.3281C21.4142 48.5454 21.7089 48.6675 22.0162 48.6675H28.9687C29.2761 48.6675 29.5708 48.5454 29.7881 48.3281C30.0054 48.1108 30.1275 47.8161 30.1275 47.5087V31.9815H36.1993C36.457 31.9852 36.7086 31.9029 36.9143 31.7476C37.1199 31.5923 37.2679 31.3729 37.3349 31.124L39.0035 25.0985C39.0496 24.9273 39.0558 24.7478 39.0216 24.5738C38.9875 24.3998 38.9138 24.236 38.8063 24.095C38.6989 23.9539 38.5605 23.8394 38.4018 23.7603C38.2431 23.6812 38.0684 23.6395 37.8911 23.6385H30.1275V17.3812C30.1851 16.8076 30.4545 16.2761 30.8831 15.8904C31.3116 15.5047 31.8685 15.2926 32.445 15.2955H38.2387C38.5461 15.2955 38.8408 15.1734 39.0581 14.9561C39.2754 14.7388 39.3975 14.4441 39.3975 14.1367V8.11125Z"/>
</svg>
