<svg viewBox="0 0 57 57" fill="none" xmlns="http://www.w3.org/2000/svg">
<path d="M28.31 0.5C20.75 0.5 19.8078 0.536505 16.8491 0.661666C13.8783 0.807687 11.8688 1.26835 10.0957 1.95673C8.26691 2.67293 6.70936 3.6238 5.17093 5.17093C3.62206 6.70936 2.6625 8.26691 1.95673 10.0957C1.26835 11.8688 0.807687 13.8783 0.661666 16.8491C0.527813 19.8095 0.5 20.75 0.5 28.31C0.5 35.8701 0.536505 36.8122 0.661666 39.7709C0.807687 42.733 1.26835 44.7512 1.95673 46.5244C2.67293 48.3531 3.6238 49.9106 5.17093 51.4491C6.70936 52.9979 8.26691 53.9575 10.0957 54.6633C11.8688 55.343 13.887 55.8123 16.8491 55.9583C19.8095 56.0922 20.75 56.12 28.31 56.12C35.8701 56.12 36.8122 56.0835 39.7709 55.9583C42.733 55.8123 44.7512 55.3412 46.5244 54.6633C48.3531 53.9471 49.9106 52.9962 51.4491 51.4491C52.9979 49.9106 53.9575 48.3618 54.6633 46.5244C55.343 44.7512 55.8123 42.733 55.9583 39.7709C56.0922 36.8105 56.12 35.8701 56.12 28.31C56.12 20.75 56.0835 19.8078 55.9583 16.8491C55.8123 13.887 55.3412 11.8583 54.6633 10.0957C53.9471 8.26691 52.9962 6.70936 51.4491 5.17093C49.9106 3.62206 48.3618 2.6625 46.5244 1.95673C44.7512 1.26835 42.733 0.807687 39.7709 0.661666C36.8105 0.527813 35.8701 0.5 28.31 0.5ZM28.31 5.50643C35.7345 5.50643 36.621 5.54293 39.5553 5.66809C42.2619 5.79499 43.7361 6.24696 44.7147 6.6294C46.0202 7.13525 46.9329 7.73324 47.9202 8.71019C48.8885 9.67845 49.4865 10.6015 49.9923 11.907C50.3748 12.8857 50.8267 14.3598 50.9536 17.0664C51.0788 20.0007 51.1153 20.889 51.1153 28.3117C51.1153 35.7345 51.0788 36.6228 50.9432 39.5571C50.7972 42.2637 50.3452 43.7378 49.9645 44.7165C49.4378 46.022 48.8503 46.9346 47.8803 47.922C46.9016 48.8902 45.9698 49.4882 44.6748 49.9941C43.7082 50.3765 42.2133 50.8285 39.4962 50.9554C36.5463 51.0805 35.6771 51.1171 28.2335 51.1171C20.7899 51.1171 19.9225 51.0805 16.9691 50.945C14.2625 50.7989 12.7692 50.347 11.7905 49.9663C10.4694 49.4396 9.56372 48.852 8.59372 47.882C7.61504 46.9033 6.99271 45.9716 6.51293 44.6765C6.12354 43.71 5.67852 42.215 5.53424 39.498C5.43515 36.5828 5.38822 35.6788 5.38822 28.27C5.38822 20.8647 5.43515 19.959 5.53424 17.0073C5.67852 14.2903 6.12354 12.7988 6.51293 11.8288C6.99271 10.5059 7.61677 9.60196 8.59372 8.62327C9.56198 7.65502 10.4694 7.02921 11.7905 6.539C12.7692 6.1583 14.226 5.70634 16.943 5.57074C19.8929 5.46471 20.7621 5.42646 28.1953 5.42646L28.31 5.50643ZM28.31 14.0365C20.4162 14.0365 14.033 20.4284 14.033 28.3135C14.033 36.2073 20.4249 42.5905 28.31 42.5905C36.2038 42.5905 42.587 36.1986 42.587 28.3135C42.587 20.4197 36.1951 14.0365 28.31 14.0365ZM28.31 37.5841C23.1854 37.5841 19.0394 33.4381 19.0394 28.3135C19.0394 23.1888 23.1854 19.0429 28.31 19.0429C33.4346 19.0429 37.5806 23.1888 37.5806 28.3135C37.5806 33.4381 33.4346 37.5841 28.31 37.5841ZM46.5 13.4663C46.5 15.3142 44.9963 16.8057 43.1572 16.8057C41.3093 16.8057 39.8178 15.3124 39.8178 13.4663C39.8178 11.6289 41.3198 10.1339 43.1572 10.1339C44.9946 10.1339 46.5 11.6289 46.5 13.4663Z"/>
</svg>
